<svg width="18" height="18" viewBox="0 0 18 18" fill="none" xmlns="http://www.w3.org/2000/svg">
<path d="M5.61 13.7624L7.935 15.5624C8.235 15.8624 8.91 16.0124 9.36 16.0124H12.21C13.11 16.0124 14.085 15.3374 14.31 14.4374L16.11 8.96235C16.485 7.91235 15.81 7.01235 14.685 7.01235H11.685C11.235 7.01235 10.86 6.63735 10.935 6.11235L11.31 3.71235C11.46 3.03735 11.01 2.28735 10.335 2.06235C9.735 1.83735 8.985 2.13735 8.685 2.58735L5.61 7.16235" stroke="#292D32" stroke-width="1.2" stroke-miterlimit="10"/>
<path d="M1.785 13.7623V6.4123C1.785 5.3623 2.235 4.9873 3.285 4.9873H4.035C5.085 4.9873 5.535 5.3623 5.535 6.4123V13.7623C5.535 14.8123 5.085 15.1873 4.035 15.1873H3.285C2.235 15.1873 1.785 14.8123 1.785 13.7623Z" stroke="#292D32" stroke-width="1.2" stroke-linecap="round" stroke-linejoin="round"/>
</svg>
