<svg width="18" height="18" viewBox="0 0 18 18" fill="none" xmlns="http://www.w3.org/2000/svg">
<path d="M4.5 15.75V14.25C4.5 13.4544 4.81607 12.6913 5.37868 12.1287C5.94129 11.5661 6.70435 11.25 7.5 11.25H9.375M14.2507 15.75C13.8529 15.75 13.4714 15.592 13.1901 15.3107C12.9088 15.0294 12.7507 14.6478 12.7507 14.25C12.7507 13.8522 12.9088 13.4706 13.1901 13.1893C13.4714 12.908 13.8529 12.75 14.2507 12.75M14.2507 15.75C14.6486 15.75 15.0301 15.592 15.3114 15.3107C15.5927 15.0294 15.7507 14.6478 15.7507 14.25C15.7507 13.8522 15.5927 13.4706 15.3114 13.1893C15.0301 12.908 14.6486 12.75 14.2507 12.75M14.2507 15.75V16.875M14.2507 12.75V11.625M16.524 12.9375L15.5497 13.5M12.9525 15L11.9775 15.5625M11.9775 12.9375L12.9525 13.5M15.5497 15L16.5248 15.5625M6 5.25C6 6.04565 6.31607 6.80871 6.87868 7.37132C7.44129 7.93393 8.20435 8.25 9 8.25C9.79565 8.25 10.5587 7.93393 11.1213 7.37132C11.6839 6.80871 12 6.04565 12 5.25C12 4.45435 11.6839 3.69129 11.1213 3.12868C10.5587 2.56607 9.79565 2.25 9 2.25C8.20435 2.25 7.44129 2.56607 6.87868 3.12868C6.31607 3.69129 6 4.45435 6 5.25Z" stroke="#252525" stroke-width="1.2" stroke-linecap="round" stroke-linejoin="round"/>
</svg>
