<svg width="18" height="18" viewBox="0 0 18 18" fill="none" xmlns="http://www.w3.org/2000/svg">
<path d="M9 3.37506C7.6655 3.37513 6.36096 3.77076 5.25123 4.51197C4.14149 5.25318 3.27637 6.30671 2.76518 7.53942C2.25399 8.77213 2.11966 10.1287 2.37919 11.4377C2.63871 12.7468 3.28043 13.9495 4.22325 14.8939C4.2769 14.9459 4.31966 15.008 4.34904 15.0767C4.37842 15.1454 4.39383 15.2192 4.39437 15.2939C4.39491 15.3686 4.38057 15.4426 4.35219 15.5117C4.32381 15.5808 4.28196 15.6435 4.22907 15.6963C4.17618 15.749 4.11332 15.7907 4.04415 15.8189C3.97499 15.8471 3.9009 15.8612 3.82622 15.8604C3.75153 15.8597 3.67774 15.8441 3.60916 15.8145C3.54058 15.7849 3.47857 15.742 3.42675 15.6882C2.32677 14.5863 1.57809 13.1831 1.27533 11.6559C0.972569 10.1286 1.12931 8.54593 1.72575 7.10775C2.32219 5.66957 3.33155 4.44047 4.6263 3.57575C5.92104 2.71103 7.44305 2.24951 9 2.24951C10.557 2.24951 12.079 2.71103 13.3737 3.57575C14.6685 4.44047 15.6778 5.66957 16.2743 7.10775C16.8707 8.54593 17.0274 10.1286 16.7247 11.6559C16.4219 13.1831 15.6732 14.5863 14.5733 15.6882C14.5214 15.742 14.4594 15.7849 14.3908 15.8145C14.3223 15.8441 14.2485 15.8597 14.1738 15.8604C14.0991 15.8612 14.025 15.8471 13.9559 15.8189C13.8867 15.7907 13.8238 15.749 13.7709 15.6963C13.7181 15.6435 13.6762 15.5808 13.6478 15.5117C13.6194 15.4426 13.6051 15.3686 13.6056 15.2939C13.6062 15.2192 13.6216 15.1454 13.651 15.0767C13.6803 15.008 13.7231 14.9459 13.7768 14.8939C14.7196 13.9495 15.3613 12.7468 15.6208 11.4377C15.8803 10.1287 15.746 8.77213 15.2348 7.53942C14.7236 6.30671 13.8585 5.25318 12.7488 4.51197C11.639 3.77076 10.3345 3.37513 9 3.37506ZM9 6.18756C8.2212 6.18751 7.45987 6.41841 6.8123 6.85106C6.16473 7.28372 5.66 7.89869 5.36196 8.61821C5.06392 9.33773 4.98594 10.1295 5.13789 10.8933C5.28985 11.6571 5.6649 12.3588 6.21563 12.9094C6.26935 12.9613 6.31221 13.0234 6.34169 13.092C6.37117 13.1607 6.38668 13.2345 6.38733 13.3092C6.38798 13.3838 6.37375 13.4579 6.34547 13.527C6.31718 13.5962 6.27542 13.659 6.2226 13.7118C6.16979 13.7646 6.10698 13.8064 6.03785 13.8347C5.96872 13.8629 5.89465 13.8772 5.81997 13.8765C5.74528 13.8759 5.67147 13.8604 5.60284 13.8309C5.53421 13.8014 5.47214 13.7585 5.42025 13.7048C4.71226 12.9968 4.23011 12.0948 4.03477 11.1127C3.83944 10.1307 3.9397 9.11281 4.32287 8.18776C4.70604 7.26271 5.35491 6.47206 6.18744 5.91579C7.01996 5.35952 7.99874 5.06261 9 5.06261C10.0013 5.06261 10.98 5.35952 11.8126 5.91579C12.6451 6.47206 13.294 7.26271 13.6771 8.18776C14.0603 9.11281 14.1606 10.1307 13.9652 11.1127C13.7699 12.0948 13.2878 12.9968 12.5798 13.7048C12.4737 13.8073 12.3316 13.864 12.1841 13.8627C12.0366 13.8614 11.8955 13.8023 11.7912 13.698C11.6869 13.5937 11.6278 13.4526 11.6265 13.3051C11.6252 13.1576 11.6819 13.0155 11.7844 12.9094C12.3351 12.3588 12.7102 11.6571 12.8621 10.8933C13.0141 10.1295 12.9361 9.33773 12.638 8.61821C12.34 7.89869 11.8353 7.28372 11.1877 6.85106C10.5401 6.41841 9.77881 6.18751 9 6.18756ZM9 7.87506C8.40327 7.87506 7.83097 8.11212 7.40901 8.53407C6.98706 8.95603 6.75 9.52833 6.75 10.1251C6.75 10.7218 6.98706 11.2941 7.40901 11.7161C7.83097 12.138 8.40327 12.3751 9 12.3751C9.59674 12.3751 10.169 12.138 10.591 11.7161C11.0129 11.2941 11.25 10.7218 11.25 10.1251C11.25 9.52833 11.0129 8.95603 10.591 8.53407C10.169 8.11212 9.59674 7.87506 9 7.87506ZM7.875 10.1251C7.875 9.8267 7.99353 9.54055 8.20451 9.32957C8.41549 9.11859 8.70164 9.00006 9 9.00006C9.29837 9.00006 9.58452 9.11859 9.7955 9.32957C10.0065 9.54055 10.125 9.8267 10.125 10.1251C10.125 10.4234 10.0065 10.7096 9.7955 10.9206C9.58452 11.1315 9.29837 11.2501 9 11.2501C8.70164 11.2501 8.41549 11.1315 8.20451 10.9206C7.99353 10.7096 7.875 10.4234 7.875 10.1251Z" fill="#252525"/>
</svg>
