<svg width="18" height="18" viewBox="0 0 18 18" fill="none" xmlns="http://www.w3.org/2000/svg">
<path d="M7.03125 8.18648C7.11678 8.1371 7.1878 8.06608 7.23717 7.98054C7.28654 7.89501 7.31252 7.79798 7.3125 7.69922V2.63672C7.31199 2.54704 7.29006 2.45878 7.24851 2.3793C7.20697 2.29982 7.14702 2.23143 7.07368 2.17982C7.00033 2.12822 6.91571 2.0949 6.82687 2.08264C6.73803 2.07039 6.64754 2.07955 6.56296 2.10938C4.92115 2.69045 3.54045 3.83811 2.66907 5.34605C1.79769 6.85399 1.49277 8.62331 1.80914 10.3359C1.82554 10.4245 1.86296 10.5078 1.91827 10.5789C1.97357 10.65 2.04514 10.7068 2.12695 10.7445C2.20068 10.7789 2.28111 10.7967 2.3625 10.7965C2.46122 10.7965 2.55822 10.7706 2.64375 10.7212L7.03125 8.18648ZM6.1875 3.48891V7.37437L2.82093 9.31711C2.8125 9.21094 2.8125 9.10406 2.8125 9C2.81349 7.85979 3.12911 6.74196 3.72459 5.76959C4.32006 4.79722 5.17231 4.00803 6.1875 3.48891ZM16.3125 9C16.3131 10.6053 15.7853 12.1662 14.8108 13.4419C13.8362 14.7175 12.4689 15.637 10.9199 16.0585C9.37091 16.48 7.72625 16.38 6.23969 15.774C4.75313 15.1681 3.50728 14.0898 2.69437 12.7055C2.65648 12.6415 2.63163 12.5707 2.62126 12.4971C2.6109 12.4235 2.61523 12.3486 2.63399 12.2767C2.65275 12.2048 2.68559 12.1373 2.73059 12.0781C2.77559 12.019 2.83186 11.9693 2.89617 11.932L8.4375 8.7068V2.25C8.4375 2.10082 8.49676 1.95774 8.60225 1.85225C8.70774 1.74676 8.85081 1.6875 9 1.6875C10.2761 1.68815 11.5298 2.02256 12.6367 2.65754C13.7436 3.29251 14.6651 4.20595 15.3098 5.30719C15.3176 5.31844 15.3246 5.32969 15.3316 5.34164C15.3387 5.35359 15.3457 5.36766 15.352 5.38031C15.983 6.48223 16.3141 7.73024 16.3125 9Z" fill="#008FD5"/>
</svg>
