<svg width="18" height="18" viewBox="0 0 18 18" fill="none" xmlns="http://www.w3.org/2000/svg">
<path d="M11.25 14.346C11.8898 14.5315 12.5526 14.6255 13.2188 14.625C14.2902 14.6275 15.3478 14.3832 16.3095 13.911C16.3115 13.868 16.3125 13.8247 16.3125 13.7812C16.3126 13.1197 16.1005 12.4755 15.7076 11.9433C15.3146 11.4111 14.7613 11.0188 14.129 10.8242C13.4967 10.6295 12.8187 10.6427 12.1944 10.8617C11.5701 11.0808 11.0325 11.4942 10.6605 12.0413M11.25 14.346V14.3438C11.25 13.509 11.0363 12.7238 10.6605 12.0413M11.25 14.346V14.4255C9.80689 15.2955 8.15305 15.7535 6.468 15.75C4.71975 15.75 3.084 15.2662 1.6875 14.4255L1.68675 14.3438C1.68618 13.2821 2.03896 12.2504 2.68949 11.4114C3.34002 10.5724 4.25128 9.97382 5.27962 9.70995C6.30796 9.44607 7.39487 9.53196 8.369 9.95407C9.34313 10.3762 10.1498 11.1105 10.6605 12.0413M9 4.78125C9 5.45258 8.73332 6.09641 8.25862 6.57111C7.78391 7.04582 7.14008 7.3125 6.46875 7.3125C5.79742 7.3125 5.15359 7.04582 4.67889 6.57111C4.20419 6.09641 3.9375 5.45258 3.9375 4.78125C3.9375 4.10992 4.20419 3.46609 4.67889 2.99139C5.15359 2.51668 5.79742 2.25 6.46875 2.25C7.14008 2.25 7.78391 2.51668 8.25862 2.99139C8.73332 3.46609 9 4.10992 9 4.78125ZM15.1875 6.46875C15.1875 6.99089 14.9801 7.49165 14.6109 7.86087C14.2417 8.23008 13.7409 8.4375 13.2188 8.4375C12.6966 8.4375 12.1958 8.23008 11.8266 7.86087C11.4574 7.49165 11.25 6.99089 11.25 6.46875C11.25 5.94661 11.4574 5.44585 11.8266 5.07663C12.1958 4.70742 12.6966 4.5 13.2188 4.5C13.7409 4.5 14.2417 4.70742 14.6109 5.07663C14.9801 5.44585 15.1875 5.94661 15.1875 6.46875Z" stroke="#252525" stroke-width="1.2" stroke-linecap="round" stroke-linejoin="round"/>
</svg>
