<svg width="18" height="18" viewBox="0 0 18 18" fill="none" xmlns="http://www.w3.org/2000/svg">
<path d="M8.99984 9C11.0709 9 12.7498 7.32107 12.7498 5.25C12.7498 3.17893 11.0709 1.5 8.99984 1.5C6.92877 1.5 5.24984 3.17893 5.24984 5.25C5.24984 7.32107 6.92877 9 8.99984 9Z" stroke="#252525" stroke-width="1.2" stroke-linecap="round" stroke-linejoin="round"/>
<path d="M2.55753 16.5C2.55753 13.5975 5.44502 11.25 9.00002 11.25C9.72002 11.25 10.4175 11.3475 11.07 11.5275" stroke="#252525" stroke-width="1.2" stroke-linecap="round" stroke-linejoin="round"/>
<path d="M16.5002 13.5C16.5002 13.74 16.4702 13.9725 16.4102 14.1975C16.3427 14.4975 16.2227 14.79 16.0652 15.045C15.5477 15.915 14.5952 16.5 13.5002 16.5C12.7277 16.5 12.0302 16.2075 11.5052 15.7275C11.2802 15.5325 11.0852 15.3 10.9352 15.045C10.6577 14.595 10.5002 14.0625 10.5002 13.5C10.5002 12.69 10.8227 11.9475 11.3477 11.4075C11.8952 10.845 12.6602 10.5 13.5002 10.5C14.3852 10.5 15.1877 10.8825 15.7277 11.4975C16.2077 12.03 16.5002 12.735 16.5002 13.5Z" stroke="#252525" stroke-width="1.2" stroke-miterlimit="10" stroke-linecap="round" stroke-linejoin="round"/>
<path d="M14.6174 13.4854H12.3824" stroke="#252525" stroke-width="1.2" stroke-miterlimit="10" stroke-linecap="round" stroke-linejoin="round"/>
<path d="M13.5 12.3901V14.6326" stroke="#252525" stroke-width="1.2" stroke-miterlimit="10" stroke-linecap="round" stroke-linejoin="round"/>
</svg>
