<svg width="18" height="18" viewBox="0 0 18 18" fill="none" xmlns="http://www.w3.org/2000/svg">
<g clip-path="url(#clip0_422_18960)">
<path d="M1.5 9C1.5 5.4645 1.5 3.69675 2.598 2.598C3.6975 1.5 5.4645 1.5 9 1.5C12.5355 1.5 14.3032 1.5 15.4012 2.598C16.5 3.6975 16.5 5.4645 16.5 9C16.5 12.5355 16.5 14.3032 15.4012 15.4012C14.304 16.5 12.5355 16.5 9 16.5C5.4645 16.5 3.69675 16.5 2.598 15.4012C1.5 14.304 1.5 12.5355 1.5 9Z" stroke="#252525" stroke-width="1.2"/>
<path d="M5.25 10.5L6.59775 8.883C7.13175 8.24175 7.39875 7.9215 7.74975 7.9215C8.1015 7.9215 8.3685 8.24175 8.9025 8.883L9.0975 9.117C9.6315 9.75825 9.8985 10.0785 10.2502 10.0785C10.602 10.0785 10.8683 9.75825 11.4023 9.117L12.75 7.5" stroke="#252525" stroke-width="1.2" stroke-linecap="round"/>
</g>
<defs>
<clipPath id="clip0_422_18960">
<rect width="18" height="18" fill="white"/>
</clipPath>
</defs>
</svg>
