<svg width="16" height="16" viewBox="0 0 16 16" fill="none" xmlns="http://www.w3.org/2000/svg">
<path d="M13.9152 8.39848L14.9322 9.30411C15.1201 9.46083 15.2455 9.67961 15.286 9.92085C15.3264 10.1621 15.2792 10.4098 15.1527 10.6192L13.9265 12.714C13.8314 12.8743 13.6955 13.0067 13.5327 13.0976C13.3681 13.1887 13.1832 13.2371 12.995 13.2382C12.8783 13.239 12.7621 13.2215 12.6507 13.1865L11.3491 12.7567C11.1211 12.903 10.8841 13.0339 10.6381 13.1494L10.3647 14.469C10.3142 14.7117 10.179 14.9286 9.98337 15.081C9.78527 15.2361 9.53966 15.3179 9.28812 15.3127H6.749C6.49746 15.3179 6.25185 15.2361 6.05375 15.081C5.85854 14.9284 5.72379 14.7116 5.6735 14.469L5.399 13.1494C5.15622 13.0323 4.92068 12.9008 4.69362 12.7556L3.3875 13.1865C3.27613 13.2215 3.15999 13.239 3.04325 13.2382C2.85544 13.2369 2.67096 13.1885 2.50662 13.0976C2.34399 13.007 2.20817 12.875 2.11287 12.7151L0.842749 10.6192C0.710706 10.4079 0.660252 10.1557 0.700844 9.90991C0.741437 9.66408 0.870288 9.44149 1.06325 9.28386L2.07912 8.00023V7.60198L1.06212 6.69636C0.87432 6.53964 0.748835 6.32086 0.708388 6.07962C0.667941 5.83838 0.715205 5.59064 0.841624 5.38123L2.11175 3.28648C2.20688 3.12613 2.34272 2.99379 2.5055 2.90286C2.66983 2.81193 2.85431 2.76358 3.04212 2.76223C3.15781 2.75494 3.27393 2.76556 3.38637 2.79373L4.66662 3.24373C4.89537 3.09748 5.13237 2.96661 5.37762 2.85111L5.65212 1.53148C5.70242 1.2889 5.83716 1.07203 6.03237 0.919484C6.23048 0.764398 6.47609 0.682528 6.72762 0.687734H9.24537C9.49691 0.682528 9.74252 0.764398 9.94062 0.919484C10.1375 1.07361 10.2725 1.29073 10.3209 1.53148L10.5954 2.85111C10.8391 2.96736 11.0742 3.09861 11.3007 3.24486L12.608 2.81511C12.7531 2.76791 12.9064 2.75134 13.0582 2.76645C13.21 2.78155 13.3571 2.828 13.49 2.90286C13.6531 2.99511 13.7881 3.12786 13.8837 3.28536L15.1527 5.38123C15.2866 5.59073 15.3396 5.84177 15.3019 6.08749C15.2642 6.33321 15.1384 6.55683 14.948 6.71661L13.9152 7.59636V8.39848Z" stroke="#252525" stroke-width="1.2"/>
<path d="M10.8125 8C10.8125 8.74592 10.5162 9.46129 9.98874 9.98874C9.46129 10.5162 8.74592 10.8125 8 10.8125C7.25408 10.8125 6.53871 10.5162 6.01126 9.98874C5.48382 9.46129 5.1875 8.74592 5.1875 8C5.1875 7.25408 5.48382 6.53871 6.01126 6.01126C6.53871 5.48382 7.25408 5.1875 8 5.1875C8.74592 5.1875 9.46129 5.48382 9.98874 6.01126C10.5162 6.53871 10.8125 7.25408 10.8125 8Z" stroke="#252525" stroke-width="1.2"/>
</svg>
